{
	"asset":{
		"generator":"Khronos glTF Blender I/O v4.2.69",
		"version":"2.0"
	},
	"scene":0,
	"scenes":[
		{
			"name":"Scene",
			"nodes":[
				0
			]
		}
	],
	"nodes":[
		{
			"mesh":0,
			"name":"WaterBottle",
			"rotation":[
				0,
				1,
				0,
				0
			]
		}
	],
	"materials":[
		{
			"emissiveFactor":[
				1,
				1,
				1
			],
			"emissiveTexture":{
				"index":0
			},
			"name":"BottleMat",
			"normalTexture":{
				"index":1
			},
			"occlusionTexture":{
				"index":2
			},
			"pbrMetallicRoughness":{
				"baseColorTexture":{
					"index":3
				},
				"metallicRoughnessTexture":{
					"index":2
				}
			}
		}
	],
	"meshes":[
		{
			"name":"WaterBottle",
			"primitives":[
				{
					"attributes":{
						"POSITION":0,
						"NORMAL":1,
						"TEXCOORD_0":2,
						"TANGENT":3
					},
					"indices":4,
					"material":0
				}
			]
		}
	],
	"textures":[
		{
			"sampler":0,
			"source":0
		},
		{
			"sampler":0,
			"source":1
		},
		{
			"sampler":0,
			"source":2
		},
		{
			"sampler":0,
			"source":3
		}
	],
	"images":[
		{
			"mimeType":"image/png",
			"name":"WaterBottle_emissive",
			"uri":"Textures/WaterBottle_emissive.png"
		},
		{
			"mimeType":"image/png",
			"name":"WaterBottle_normal",
			"uri":"Textures/WaterBottle_normal.png"
		},
		{
			"mimeType":"image/png",
			"name":"WaterBottle_occlusionRoughnessMetallic",
			"uri":"Textures/WaterBottle_occlusionRoughnessMetallic.png"
		},
		{
			"mimeType":"image/png",
			"name":"WaterBottle_baseColor",
			"uri":"Textures/WaterBottle_baseColor.png"
		}
	],
	"accessors":[
		{
			"bufferView":0,
			"componentType":5126,
			"count":2549,
			"max":[
				0.054450009018182755,
				0.13022033870220184,
				0.05445002391934395
			],
			"min":[
				-0.054450009018182755,
				-0.13022033870220184,
				-0.05445002391934395
			],
			"type":"VEC3"
		},
		{
			"bufferView":1,
			"componentType":5126,
			"count":2549,
			"type":"VEC3"
		},
		{
			"bufferView":2,
			"componentType":5126,
			"count":2549,
			"type":"VEC2"
		},
		{
			"bufferView":3,
			"componentType":5126,
			"count":2549,
			"type":"VEC4"
		},
		{
			"bufferView":4,
			"componentType":5123,
			"count":13530,
			"type":"SCALAR"
		}
	],
	"bufferViews":[
		{
			"buffer":0,
			"byteLength":30588,
			"byteOffset":0,
			"target":34962
		},
		{
			"buffer":0,
			"byteLength":30588,
			"byteOffset":30588,
			"target":34962
		},
		{
			"buffer":0,
			"byteLength":20392,
			"byteOffset":61176,
			"target":34962
		},
		{
			"buffer":0,
			"byteLength":40784,
			"byteOffset":81568,
			"target":34962
		},
		{
			"buffer":0,
			"byteLength":27060,
			"byteOffset":122352,
			"target":34963
		}
	],
	"samplers":[
		{
			"magFilter":9729,
			"minFilter":9987
		}
	],
	"buffers":[
		{
			"byteLength":149412,
			"uri":"bottle_blender.bin"
		}
	]
}
